<svg width="24" height="24" viewBox="0 0 24 24" fill="none" xmlns="http://www.w3.org/2000/svg">
<path d="M17.1807 16.8984C15.9407 16.8984 14.9307 17.9024 14.9307 19.1484C14.9307 20.3944 15.9397 21.3984 17.1807 21.3984C18.4217 21.3984 19.4307 20.3894 19.4307 19.1484C19.4307 17.9074 18.4207 16.8984 17.1807 16.8984Z" fill="#000000"/>
<path d="M9.23242 16.8984C7.98642 16.8984 6.98242 17.9024 6.98242 19.1484C6.98242 20.3944 7.98642 21.3984 9.23242 21.3984C10.4784 21.3984 11.4824 20.3894 11.4824 19.1484C11.4824 17.9074 10.4724 16.8984 9.23242 16.8984Z" fill="#000000"/>
<path d="M21.7064 5.11459C21.4974 4.85359 21.1854 4.70559 20.8514 4.70559H6.22541L6.05541 3.97359C5.76141 2.59759 4.52841 1.60059 3.12241 1.60059H1.14941C0.596414 1.60059 0.149414 2.04759 0.149414 2.60059C0.149414 3.15359 0.596414 3.60059 1.14941 3.60059H3.12341C3.59141 3.60059 4.00241 3.93259 4.10441 4.40859L6.24641 14.1466C6.46541 15.1066 7.30741 15.7776 8.29341 15.7776H18.1204C19.1054 15.7776 19.9474 15.1066 20.1674 14.1456L21.9274 6.03959C21.9964 5.71159 21.9174 5.37459 21.7064 5.11459Z" fill="#000000"/>
</svg>



