<svg width="24" height="24" viewBox="0 0 24 24" fill="none" xmlns="http://www.w3.org/2000/svg">
<g clip-path="url(#clip0_4130_3975)">
<path d="M10.7996 5.2C10.0996 5.2 9.59961 4.7 9.59961 4V1.2C9.59961 0.5 10.0996 0 10.7996 0C11.4996 0 11.9996 0.5 11.9996 1.2V4C11.9996 4.7 11.4996 5.2 10.7996 5.2Z" fill="#000000"/>
<path d="M6.10039 6.10039C5.60039 6.60039 4.90039 6.60039 4.40039 6.10039L2.40039 4.10039C1.90039 3.60039 1.90039 2.90039 2.40039 2.40039C2.90039 1.90039 3.60039 1.90039 4.10039 2.40039L6.10039 4.40039C6.60039 4.90039 6.60039 5.60039 6.10039 6.10039Z" fill="#000000"/>
<path d="M4 11.9996H1.2C0.5 11.9996 0 11.4996 0 10.7996C0 10.0996 0.5 9.59961 1.2 9.59961H4C4.7 9.59961 5.2 10.0996 5.2 10.7996C5.2 11.4996 4.7 11.9996 4 11.9996Z" fill="#000000"/>
<path fill-rule="evenodd" clip-rule="evenodd" d="M8.46517 7.68783C7.98417 7.52483 7.52517 7.98383 7.68917 8.46383L12.8192 23.5838C13.0102 24.1448 13.8042 24.1348 13.9822 23.5718L15.5232 18.6948C15.5432 18.6308 15.5742 18.5708 15.6142 18.5168L19.5992 22.5018C19.8382 22.7408 20.2252 22.7408 20.4652 22.5018L22.5032 20.4638C22.7422 20.2248 22.7422 19.8378 22.5032 19.5978L18.5182 15.6128C18.5712 15.5728 18.6312 15.5428 18.6962 15.5218L23.5732 13.9808C24.1372 13.8028 24.1452 13.0068 23.5852 12.8178L8.46517 7.68783Z" fill="#000000"/>
</g>
<defs>
<clipPath id="clip0_4130_3975">
<rect width="24" height="24" fill="#000000"/>
</clipPath>
</defs>
</svg>



