<svg width="24" height="24" viewBox="0 0 24 24" fill="none" xmlns="http://www.w3.org/2000/svg">
<path d="M11.9997 1.7803C13.0527 1.7803 13.7557 2.4823 13.7557 3.5363V15.8153L17.7937 11.7773C18.4957 11.0753 19.5497 11.0753 20.2517 11.7773C20.9537 12.4793 20.9537 13.5333 20.2517 14.2353L13.2287 21.2583C12.5267 21.9603 11.4727 21.9603 10.7707 21.2583L3.7477 14.2353C3.3967 13.8843 3.2207 13.5333 3.2207 13.0063C3.2207 12.4793 3.3967 12.1283 3.7477 11.7773C4.4497 11.0753 5.5037 11.0753 6.2057 11.7773L10.2437 15.8153V3.5353C10.2437 2.6573 10.9457 1.7803 11.9997 1.7803Z" fill="#000000"/>
</svg>



